<mxfile host="app.diagrams.net" modified="2023-05-17T03:39:37.433Z" agent="Mozilla/5.0 (Windows NT 10.0; Win64; x64) AppleWebKit/537.36 (KHTML, like Gecko) Chrome/113.0.0.0 Safari/537.36" version="21.3.2" etag="PsCAMoeXnwdMAQjWdF1C" type="github">
  <diagram name="페이지-1" id="3Q4jRo8l0YF1Ej96CcXZ">
    <mxGraphModel>
      <root>
        <mxCell id="0" />
        <mxCell id="1" parent="0" />
      </root>
    </mxGraphModel>
  </diagram>
</mxfile>
